<svg width="70" height="70" viewBox="0 0 70 70" fill="none" xmlns="http://www.w3.org/2000/svg">
<path d="M48.0392 56.9608L48.0392 48.0392L56.9608 48.0392C64.1621 48.0392 70 42.2014 70 35C70 27.7986 64.1621 21.9608 56.9608 21.9608L48.0392 21.9608C33.6365 21.9608 21.9608 33.6365 21.9608 48.0392L21.9608 56.9608C21.9608 64.1621 27.7986 70 35 70C42.2014 70 48.0392 64.1622 48.0392 56.9608Z" fill="#36807F"/>
<path d="M21.9608 13.0392V21.9608H13.0392C5.83786 21.9608 0 27.7986 0 35C0 42.2014 5.83785 48.0392 13.0392 48.0392H21.9608C36.3635 48.0392 48.0392 36.3635 48.0392 21.9608V13.0392C48.0392 5.83786 42.2014 0 35 0C27.7986 0 21.9608 5.83785 21.9608 13.0392Z" fill="#E61F57"/>
<path fill-rule="evenodd" clip-rule="evenodd" d="M48.0394 21.9608C33.6366 21.9608 21.9609 33.6365 21.9609 48.0392C36.3637 48.0392 48.0394 36.3635 48.0394 21.9608Z" fill="#223645"/>
</svg>
