<svg width="274" height="23" viewBox="0 0 274 23" fill="none" xmlns="http://www.w3.org/2000/svg">
<path d="M261.114 0.924633C255.859 0.328398 192.723 -0.817853 156.789 0.924641C87.6263 4.27847 26.1909 12.4767 11.8945 15.4579C-2.40175 18.439 -2.91139 20.4956 5.58923 21.2409C14.476 22.02 29.6683 21.7929 38.9416 19.9296C37.5249 20.7991 36.5002 23.5247 38.9416 22.9108C41.1368 22.3588 119.696 16.2032 124.333 16.2032C128.97 16.2032 140.948 16.9485 145.198 16.2032C149.448 15.4579 250.89 17.2034 257.636 17.3211C268.718 17.5144 272.196 17.5144 273.092 16.9485C274.556 16.0238 270.774 11.483 268.842 9.86816C273.741 11.1794 274.514 10.4341 273.741 8.57088C272.299 5.09369 267.682 1.66993 261.114 0.924633Z" fill="#36807F"/>
</svg>
