<svg width="50" height="46" viewBox="0 0 50 46" fill="none" xmlns="http://www.w3.org/2000/svg">
<path fill-rule="evenodd" clip-rule="evenodd" d="M22.5 0.5H27.5C39.9264 0.5 50 10.5736 50 23C50 35.4264 39.9264 45.5 27.5 45.5H10C4.47715 45.5 0 41.0228 0 35.5V23C0 10.5736 10.0736 0.5 22.5 0.5ZM26.9796 14.4963C26.7009 13.6041 25.9017 13 25 13C24.0982 13 23.2991 13.6041 23.0204 14.4963L21.6184 18.9851H17.0816C16.1799 18.9851 15.3807 19.5892 15.102 20.4814C14.8234 21.3736 15.1286 22.351 15.8582 22.9024L19.5285 25.6766L18.1266 30.1654C17.8479 31.0576 18.1532 32.035 18.8827 32.5864C19.6122 33.1379 20.6001 33.1379 21.3296 32.5864L25 29.8122L28.6704 32.5864C29.3999 33.1379 30.3878 33.1379 31.1173 32.5864C31.8468 32.035 32.1521 31.0576 31.8734 30.1654L30.4715 25.6766L34.1418 22.9024C34.8714 22.351 35.1766 21.3736 34.898 20.4814C34.6193 19.5892 33.8201 18.9851 32.9184 18.9851H28.3815L26.9796 14.4963Z" fill="#36807F"/>
</svg>
