<svg width="46" height="52" viewBox="0 0 46 52" fill="none" xmlns="http://www.w3.org/2000/svg">
<path opacity="0.4" d="M0.5 15.75C0.5 10.2272 4.97715 5.75 10.5 5.75H35.5C41.0228 5.75 45.5 10.2272 45.5 15.75V19.5V42C45.5 47.5228 41.0228 52 35.5 52H10.5C4.97715 52 0.5 47.5228 0.5 42V19.5V15.75Z" fill="#36807F"/>
<path d="M35.5 5.75H10.5C4.97715 5.75 0.5 10.2272 0.5 15.75V19.5H45.5V15.75C45.5 10.2272 41.0228 5.75 35.5 5.75Z" fill="#36807F"/>
<path opacity="0.4" fill-rule="evenodd" clip-rule="evenodd" d="M13 0.125C14.0355 0.125 14.875 0.964466 14.875 2V9.5C14.875 10.5355 14.0355 11.375 13 11.375C11.9645 11.375 11.125 10.5355 11.125 9.5V2C11.125 0.964466 11.9645 0.125 13 0.125ZM33 0.125C34.0355 0.125 34.875 0.964466 34.875 2V9.5C34.875 10.5355 34.0355 11.375 33 11.375C31.9645 11.375 31.125 10.5355 31.125 9.5V2C31.125 0.964466 31.9645 0.125 33 0.125Z" fill="#36807F"/>
<path fill-rule="evenodd" clip-rule="evenodd" d="M31.7348 28.0889C32.5141 28.7708 32.5931 29.9554 31.9112 30.7347L24.7364 38.9345C23.1947 40.6964 20.539 40.9324 18.7108 39.4698L14.3288 35.9642C13.5201 35.3173 13.389 34.1373 14.0359 33.3287C14.6828 32.5201 15.8628 32.389 16.6714 33.0359L21.0534 36.5415C21.3146 36.7505 21.694 36.7168 21.9142 36.4651L29.089 28.2653C29.7709 27.486 30.9554 27.407 31.7348 28.0889Z" fill="#36807F"/>
</svg>
